<?xml version="1.0" encoding="utf-8"?>
<!-- Generator: Adobe Illustrator 23.0.0, SVG Export Plug-In . SVG Version: 6.00 Build 0)  -->
<svg version="1.1" id="图层_1" xmlns="http://www.w3.org/2000/svg" xmlns:xlink="http://www.w3.org/1999/xlink" x="0px" y="0px"
	 viewBox="0 0 45 45" style="enable-background:new 0 0 45 45;" xml:space="preserve">
<g>
	<path d="M41.18,1.88H3.76c-1.82,0-3.29,1.47-3.29,3.29v26.68c0,1.82,1.47,3.29,3.29,3.29h17.33v5.41H15.6
		c-0.69,0-1.25,0.56-1.25,1.25l0,0c0,0.69,0.56,1.25,1.25,1.25h13.75c0.69,0,1.25-0.56,1.25-1.25l0,0c0-0.69-0.56-1.25-1.25-1.25
		h-5.49v-5.41h17.33c1.82,0,3.29-1.47,3.29-3.29V5.17C44.47,3.35,43,1.88,41.18,1.88z M42.04,31.66c0,0.63-0.52,1.15-1.15,1.15H4.04
		c-0.63,0-1.15-0.52-1.15-1.15V5.36c0-0.63,0.52-1.15,1.15-1.15h36.85c0.63,0,1.15,0.52,1.15,1.15V31.66z"/>
	<polygon points="6.24,25.09 14.11,25.09 14.11,23.55 8.19,23.55 8.19,19.18 13.73,19.18 13.73,17.58 8.19,17.58 8.19,13.57 
		14.11,13.57 14.11,11.97 6.24,11.97 	"/>
	<path d="M26.34,15.97c0-2.71-1.21-4.07-3.63-4.07h-4.82v13.2h1.91v-5.24h1.81l3.05,5.24V25.1h2.25l-3.15-5.37
		C25.51,19.53,26.37,18.28,26.34,15.97z M19.8,18.2v-4.62h2.48c1.4,0,2.08,0.8,2.05,2.4c0.06,1.52-0.62,2.26-2.05,2.22H19.8z"/>
	<path d="M35.03,11.97h-4.44v13.12h1.96v-4.74h2.44c2.51,0.04,3.74-1.36,3.67-4.19C38.65,13.37,37.44,11.97,35.03,11.97z
		 M34.59,18.69h-2.05v-5.11h2.05c1.4-0.04,2.08,0.82,2.05,2.59C36.71,17.89,36.02,18.73,34.59,18.69z"/>
</g>
</svg>
